REM DIRINDEX 1\2,1\3,1\4
REM DIRNAME folder01,folder02,folder03,folder04
TITLE ""
FILE "Track12.mp3" MP3
  TRACK 01 AUDIO
    TITLE "0:"
    INDEX 01 00:00:00
  TRACK 02 AUDIO
    TITLE "4:cjc153_0658"
    INDEX 01 00:00:05
  TRACK 03 AUDIO
    TITLE "0:"
    INDEX 01 00:01:42
  TRACK 04 AUDIO
    TITLE "2:cjc153_0659"
    INDEX 01 00:02:32
  TRACK 05 AUDIO
    TITLE "0:"
    INDEX 01 00:03:35
  TRACK 06 AUDIO
    TITLE "3:cjc153_0660"
    INDEX 01 00:03:63
  TRACK 07 AUDIO
    TITLE "0:"
    INDEX 01 00:04:70
  TRACK 08 AUDIO
    TITLE "2:cjc153_0661"
    INDEX 01 00:05:32
  TRACK 09 AUDIO
    TITLE "0:"
    INDEX 01 00:06:33
  TRACK 10 AUDIO
    TITLE "3:cjc153_0662"
    INDEX 01 00:06:59
  TRACK 11 AUDIO
    TITLE "0:"
    INDEX 01 00:07:70
  TRACK 12 AUDIO
    TITLE "2:cjc153_0663"
    INDEX 01 00:08:30
  TRACK 13 AUDIO
    TITLE "0:"
    INDEX 01 00:09:40
  TRACK 14 AUDIO
    TITLE "3:cjc153_0664"
    INDEX 01 00:10:00
  TRACK 15 AUDIO
    TITLE "0:"
    INDEX 01 00:11:11
  TRACK 16 AUDIO
    TITLE "2:cjc153_0665"
    INDEX 01 00:11:56
  TRACK 17 AUDIO
    TITLE "0:"
    INDEX 01 00:12:65
  TRACK 18 AUDIO
    TITLE "3:cjc153_0666"
    INDEX 01 00:13:26
  TRACK 19 AUDIO
    TITLE "0:"
    INDEX 01 00:14:45
  TRACK 20 AUDIO
    TITLE "2:cjc153_0667"
    INDEX 01 00:15:19
  TRACK 21 AUDIO
    TITLE "0:"
    INDEX 01 00:16:36
  TRACK 22 AUDIO
    TITLE "3:cjc153_0668"
    INDEX 01 00:16:71
  TRACK 23 AUDIO
    TITLE "0:"
    INDEX 01 00:18:19
  TRACK 24 AUDIO
    TITLE "2:cjc153_0669"
    INDEX 01 00:18:62
  TRACK 25 AUDIO
    TITLE "0:"
    INDEX 01 00:19:65
  TRACK 26 AUDIO
    TITLE "3:cjc153_0670"
    INDEX 01 00:20:16
  TRACK 27 AUDIO
    TITLE "0:"
    INDEX 01 00:21:23
  TRACK 28 AUDIO
    TITLE "2:cjc153_0671"
    INDEX 01 00:21:66
  TRACK 29 AUDIO
    TITLE "0:"
    INDEX 01 00:22:74
  TRACK 30 AUDIO
    TITLE "3:cjc153_0672"
    INDEX 01 00:23:30
  TRACK 31 AUDIO
    TITLE "0:"
    INDEX 01 00:24:37
  TRACK 32 AUDIO
    TITLE "2:cjc153_0673"
    INDEX 01 00:25:11
  TRACK 33 AUDIO
    TITLE "0:"
    INDEX 01 00:26:24
  TRACK 34 AUDIO
    TITLE "3:cjc153_0674"
    INDEX 01 00:26:60
  TRACK 35 AUDIO
    TITLE "0:"
    INDEX 01 00:27:73
  TRACK 36 AUDIO
    TITLE "2:cjc153_0675"
    INDEX 01 00:28:47
  TRACK 37 AUDIO
    TITLE "0:"
    INDEX 01 00:29:56
  TRACK 38 AUDIO
    TITLE "3:cjc153_0676"
    INDEX 01 00:30:16
  TRACK 39 AUDIO
    TITLE "0:"
    INDEX 01 00:31:22
  TRACK 40 AUDIO
    TITLE "2:cjc153_0677"
    INDEX 01 00:31:71
  TRACK 41 AUDIO
    TITLE "0:"
    INDEX 01 00:33:03
  TRACK 42 AUDIO
    TITLE "3:cjc153_0678"
    INDEX 01 00:33:38
  TRACK 43 AUDIO
    TITLE "0:"
    INDEX 01 00:34:47
  TRACK 44 AUDIO
    TITLE "2:cjc153_0679"
    INDEX 01 00:35:21
  TRACK 45 AUDIO
    TITLE "0:"
    INDEX 01 00:36:23
  TRACK 46 AUDIO
    TITLE "3:cjc153_0680"
    INDEX 01 00:36:60
  TRACK 47 AUDIO
    TITLE "0:"
    INDEX 01 00:37:63
  TRACK 48 AUDIO
    TITLE "2:cjc153_0681"
    INDEX 01 00:38:37
  TRACK 49 AUDIO
    TITLE "0:"
    INDEX 01 00:39:23
  TRACK 50 AUDIO
    TITLE "3:cjc153_0682"
    INDEX 01 00:40:01
  TRACK 51 AUDIO
    TITLE "0:"
    INDEX 01 00:40:64
  TRACK 52 AUDIO
    TITLE "2:cjc153_0683"
    INDEX 01 00:41:47
  TRACK 53 AUDIO
    TITLE "0:"
    INDEX 01 00:42:43
  TRACK 54 AUDIO
    TITLE "3:cjc153_0684"
    INDEX 01 00:43:03
  TRACK 55 AUDIO
    TITLE "0:"
    INDEX 01 00:44:05
  TRACK 56 AUDIO
    TITLE "2:cjc153_0685"
    INDEX 01 00:44:54
  TRACK 57 AUDIO
    TITLE "0:"
    INDEX 01 00:45:53
  TRACK 58 AUDIO
    TITLE "3:cjc153_0686"
    INDEX 01 00:46:13
  TRACK 59 AUDIO
    TITLE "0:"
    INDEX 01 00:47:19
  TRACK 60 AUDIO
    TITLE "2:cjc153_0687"
    INDEX 01 00:47:70
  TRACK 61 AUDIO
    TITLE "0:"
    INDEX 01 00:48:69
  TRACK 62 AUDIO
    TITLE "3:cjc153_0688"
    INDEX 01 00:49:29
  TRACK 63 AUDIO
    TITLE "0:"
    INDEX 01 00:50:35
  TRACK 64 AUDIO
    TITLE "2:cjc153_0689"
    INDEX 01 00:51:07
  TRACK 65 AUDIO
    TITLE "0:"
    INDEX 01 00:52:04
  TRACK 66 AUDIO
    TITLE "3:cjc153_0690"
    INDEX 01 00:52:41
  TRACK 67 AUDIO
    TITLE "0:"
    INDEX 01 00:53:37
  TRACK 68 AUDIO
    TITLE "2:cjc153_0691"
    INDEX 01 00:54:09
  TRACK 69 AUDIO
    TITLE "0:"
    INDEX 01 00:55:28
  TRACK 70 AUDIO
    TITLE "3:cjc153_0692"
    INDEX 01 00:55:63
  TRACK 71 AUDIO
    TITLE "0:"
    INDEX 01 00:57:15
  TRACK 72 AUDIO
    TITLE "2:cjc153_0693"
    INDEX 01 00:57:62
  TRACK 73 AUDIO
    TITLE "0:"
    INDEX 01 00:58:67
  TRACK 74 AUDIO
    TITLE "3:cjc153_0694"
    INDEX 01 00:59:26
  TRACK 75 AUDIO
    TITLE "0:"
    INDEX 01 01:00:37
  TRACK 76 AUDIO
    TITLE "2:cjc153_0695"
    INDEX 01 01:01:11
  TRACK 77 AUDIO
    TITLE "0:"
    INDEX 01 01:02:08
  TRACK 78 AUDIO
    TITLE "3:cjc153_0696"
    INDEX 01 01:02:44
  TRACK 79 AUDIO
    TITLE "0:"
    INDEX 01 01:03:45
  TRACK 80 AUDIO
    TITLE "2:cjc153_0697"
    INDEX 01 01:04:19
  TRACK 81 AUDIO
    TITLE "0:"
    INDEX 01 01:05:13
  TRACK 82 AUDIO
    TITLE "3:cjc153_0698"
    INDEX 01 01:05:52
  TRACK 83 AUDIO
    TITLE "0:"
    INDEX 01 01:06:53
  TRACK 84 AUDIO
    TITLE "2:cjc153_0699"
    INDEX 01 01:07:27
  TRACK 85 AUDIO
    TITLE "0:"
    INDEX 01 01:08:27
  TRACK 86 AUDIO
    TITLE "3:cjc153_0700"
    INDEX 01 01:08:62
  TRACK 87 AUDIO
    TITLE "0:"
    INDEX 01 01:09:65
  TRACK 88 AUDIO
    TITLE "2:cjc153_0701"
    INDEX 01 01:10:39
  TRACK 89 AUDIO
    TITLE "0:"
    INDEX 01 01:11:54
  TRACK 90 AUDIO
    TITLE "3:cjc153_0702"
    INDEX 01 01:12:17
  TRACK 91 AUDIO
    TITLE "0:"
    INDEX 01 01:13:38
  TRACK 92 AUDIO
    TITLE "2:cjc153_0703"
    INDEX 01 01:14:12
  TRACK 93 AUDIO
    TITLE "0:"
    INDEX 01 01:15:23
  TRACK 94 AUDIO
    TITLE "3:cjc153_0704"
    INDEX 01 01:15:58
  TRACK 95 AUDIO
    TITLE "0:"
    INDEX 01 01:16:73
  TRACK 96 AUDIO
    TITLE "2:cjc153_0705"
    INDEX 01 01:17:47
  TRACK 97 AUDIO
    TITLE "0:"
    INDEX 01 01:18:45
  TRACK 98 AUDIO
    TITLE "3:cjc153_0706"
    INDEX 01 01:19:07
  TRACK 99 AUDIO
    TITLE "0:"
    INDEX 01 01:20:10
  TRACK 100 AUDIO
    TITLE "2:cjc153_0707"
    INDEX 01 01:20:55
  TRACK 101 AUDIO
    TITLE "0:"
    INDEX 01 01:21:65
  TRACK 102 AUDIO
    TITLE "3:cjc153_0708"
    INDEX 01 01:22:25
  TRACK 103 AUDIO
    TITLE "0:"
    INDEX 01 01:23:42
  TRACK 104 AUDIO
    TITLE "2:cjc153_0709"
    INDEX 01 01:24:14
  TRACK 105 AUDIO
    TITLE "0:"
    INDEX 01 01:25:27
  TRACK 106 AUDIO
    TITLE "3:cjc153_0710"
    INDEX 01 01:25:62
  TRACK 107 AUDIO
    TITLE "0:"
    INDEX 01 01:26:74
  TRACK 108 AUDIO
    TITLE "2:cjc153_0711"
    INDEX 01 01:27:48
  TRACK 109 AUDIO
    TITLE "0:"
    INDEX 01 01:28:47
  TRACK 110 AUDIO
    TITLE "3:cjc153_0712"
    INDEX 01 01:29:07
  TRACK 111 AUDIO
    TITLE "0:"
    INDEX 01 01:30:09
